<mxfile host="app.diagrams.net" modified="2020-09-04T09:11:45.766Z" agent="5.0 (Macintosh; Intel Mac OS X 10_15_5) AppleWebKit/537.36 (KHTML, like Gecko) Chrome/84.0.4147.135 Safari/537.36" etag="nzOzU1xFOSzafMSCDc6k" version="13.6.6" type="github">
  <diagram id="hGuKtX9XQRZ_k_zxGHC5" name="Page-1">
    <mxGraphModel dx="946" dy="623" grid="1" gridSize="10" guides="1" tooltips="1" connect="1" arrows="1" fold="1" page="1" pageScale="1" pageWidth="850" pageHeight="1100" math="0" shadow="0">
      <root>
        <mxCell id="0" />
        <mxCell id="1" parent="0" />
        <mxCell id="F8_EhPx4H4XMqtGxfWtN-1" value="xx 系统" style="rounded=0;whiteSpace=wrap;html=1;fontSize=21;fontStyle=1" vertex="1" parent="1">
          <mxGeometry x="170" y="70" width="440" height="80" as="geometry" />
        </mxCell>
        <mxCell id="F8_EhPx4H4XMqtGxfWtN-16" value="" style="group" vertex="1" connectable="0" parent="1">
          <mxGeometry x="170" y="180" width="440" height="100" as="geometry" />
        </mxCell>
        <mxCell id="F8_EhPx4H4XMqtGxfWtN-2" value="" style="rounded=0;whiteSpace=wrap;html=1;fillColor=#d5e8d4;strokeColor=#82b366;" vertex="1" parent="F8_EhPx4H4XMqtGxfWtN-16">
          <mxGeometry width="440" height="100" as="geometry" />
        </mxCell>
        <mxCell id="F8_EhPx4H4XMqtGxfWtN-3" value="第一层" style="text;html=1;strokeColor=none;fillColor=none;align=center;verticalAlign=middle;whiteSpace=wrap;rounded=0;" vertex="1" parent="F8_EhPx4H4XMqtGxfWtN-16">
          <mxGeometry x="10" y="40" width="40" height="20" as="geometry" />
        </mxCell>
        <mxCell id="F8_EhPx4H4XMqtGxfWtN-4" value="海报" style="rounded=0;whiteSpace=wrap;html=1;" vertex="1" parent="F8_EhPx4H4XMqtGxfWtN-16">
          <mxGeometry x="90" y="30" width="80" height="40" as="geometry" />
        </mxCell>
        <mxCell id="F8_EhPx4H4XMqtGxfWtN-5" value="XX" style="rounded=0;whiteSpace=wrap;html=1;" vertex="1" parent="F8_EhPx4H4XMqtGxfWtN-16">
          <mxGeometry x="200" y="30" width="80" height="40" as="geometry" />
        </mxCell>
        <mxCell id="F8_EhPx4H4XMqtGxfWtN-14" value="XX" style="rounded=0;whiteSpace=wrap;html=1;" vertex="1" parent="F8_EhPx4H4XMqtGxfWtN-16">
          <mxGeometry x="310" y="30" width="80" height="40" as="geometry" />
        </mxCell>
        <mxCell id="F8_EhPx4H4XMqtGxfWtN-15" value="" style="rounded=0;whiteSpace=wrap;html=1;dashed=1;fillColor=none;fontSize=21;fontColor=#000000;" vertex="1" parent="F8_EhPx4H4XMqtGxfWtN-16">
          <mxGeometry x="70" y="10" width="340" height="80" as="geometry" />
        </mxCell>
        <mxCell id="F8_EhPx4H4XMqtGxfWtN-17" value="" style="group" vertex="1" connectable="0" parent="1">
          <mxGeometry x="170" y="310" width="440" height="100" as="geometry" />
        </mxCell>
        <mxCell id="F8_EhPx4H4XMqtGxfWtN-18" value="" style="rounded=0;whiteSpace=wrap;html=1;fillColor=#dae8fc;strokeColor=#6c8ebf;" vertex="1" parent="F8_EhPx4H4XMqtGxfWtN-17">
          <mxGeometry width="440" height="100" as="geometry" />
        </mxCell>
        <mxCell id="F8_EhPx4H4XMqtGxfWtN-19" value="第一层" style="text;html=1;strokeColor=none;fillColor=none;align=center;verticalAlign=middle;whiteSpace=wrap;rounded=0;" vertex="1" parent="F8_EhPx4H4XMqtGxfWtN-17">
          <mxGeometry x="10" y="40" width="40" height="20" as="geometry" />
        </mxCell>
        <mxCell id="F8_EhPx4H4XMqtGxfWtN-20" value="海报" style="rounded=0;whiteSpace=wrap;html=1;" vertex="1" parent="F8_EhPx4H4XMqtGxfWtN-17">
          <mxGeometry x="90" y="30" width="80" height="40" as="geometry" />
        </mxCell>
        <mxCell id="F8_EhPx4H4XMqtGxfWtN-21" value="XX" style="rounded=0;whiteSpace=wrap;html=1;" vertex="1" parent="F8_EhPx4H4XMqtGxfWtN-17">
          <mxGeometry x="200" y="30" width="80" height="40" as="geometry" />
        </mxCell>
        <mxCell id="F8_EhPx4H4XMqtGxfWtN-22" value="XX" style="rounded=0;whiteSpace=wrap;html=1;" vertex="1" parent="F8_EhPx4H4XMqtGxfWtN-17">
          <mxGeometry x="310" y="30" width="80" height="40" as="geometry" />
        </mxCell>
        <mxCell id="F8_EhPx4H4XMqtGxfWtN-23" value="" style="rounded=0;whiteSpace=wrap;html=1;dashed=1;fillColor=none;fontSize=21;fontColor=#000000;" vertex="1" parent="F8_EhPx4H4XMqtGxfWtN-17">
          <mxGeometry x="70" y="10" width="340" height="80" as="geometry" />
        </mxCell>
      </root>
    </mxGraphModel>
  </diagram>
</mxfile>
